<?xml version="1.0" encoding="UTF-8" standalone="no"?>
<!DOCTYPE svg PUBLIC "-//W3C//DTD SVG 1.1//EN"
 "http://www.w3.org/Graphics/SVG/1.1/DTD/svg11.dtd">
<!-- Generated by graphviz version 9.0.0 (20230911.1827)
 -->
<!-- Title: Tree Pages: 1 -->
<svg width="1629pt" height="968pt"
 viewBox="0.00 0.00 1629.12 967.50" xmlns="http://www.w3.org/2000/svg" xmlns:xlink="http://www.w3.org/1999/xlink">
<g id="graph0" class="graph" transform="scale(1 1) rotate(0) translate(4 963.5)">
<title>Tree</title>
<polygon fill="white" stroke="none" points="-4,4 -4,-963.5 1625.12,-963.5 1625.12,4 -4,4"/>
<!-- 0 -->
<g id="node1" class="node">
<title>0</title>
<polygon fill="none" stroke="black" points="1199.12,-959.5 1038.38,-959.5 1038.38,-869 1199.12,-869 1199.12,-959.5"/>
<text text-anchor="middle" x="1118.75" y="-942.2" font-family="Helvetica,sans-Serif" font-size="14.00">worst radius &lt;= 16.795</text>
<text text-anchor="middle" x="1118.75" y="-925.7" font-family="Helvetica,sans-Serif" font-size="14.00">gini = 0.468</text>
<text text-anchor="middle" x="1118.75" y="-909.2" font-family="Helvetica,sans-Serif" font-size="14.00">samples = 426</text>
<text text-anchor="middle" x="1118.75" y="-892.7" font-family="Helvetica,sans-Serif" font-size="14.00">value = [159, 267]</text>
<text text-anchor="middle" x="1118.75" y="-876.2" font-family="Helvetica,sans-Serif" font-size="14.00">class = benign</text>
</g>
<!-- 1 -->
<g id="node2" class="node">
<title>1</title>
<polygon fill="none" stroke="black" points="1048.5,-833 839,-833 839,-742.5 1048.5,-742.5 1048.5,-833"/>
<text text-anchor="middle" x="943.75" y="-815.7" font-family="Helvetica,sans-Serif" font-size="14.00">worst concave points &lt;= 0.136</text>
<text text-anchor="middle" x="943.75" y="-799.2" font-family="Helvetica,sans-Serif" font-size="14.00">gini = 0.161</text>
<text text-anchor="middle" x="943.75" y="-782.7" font-family="Helvetica,sans-Serif" font-size="14.00">samples = 284</text>
<text text-anchor="middle" x="943.75" y="-766.2" font-family="Helvetica,sans-Serif" font-size="14.00">value = [25, 259]</text>
<text text-anchor="middle" x="943.75" y="-749.7" font-family="Helvetica,sans-Serif" font-size="14.00">class = benign</text>
</g>
<!-- 0&#45;&gt;1 -->
<g id="edge1" class="edge">
<title>0&#45;&gt;1</title>
<path fill="none" stroke="black" d="M1056.07,-868.65C1043,-859.36 1029.12,-849.49 1015.75,-839.97"/>
<polygon fill="black" stroke="black" points="1018,-837.28 1007.82,-834.33 1013.94,-842.98 1018,-837.28"/>
<text text-anchor="middle" x="1010.74" y="-853.05" font-family="Helvetica,sans-Serif" font-size="14.00">True</text>
</g>
<!-- 28 -->
<g id="node29" class="node">
<title>28</title>
<polygon fill="none" stroke="black" points="1238.38,-833 1085.12,-833 1085.12,-742.5 1238.38,-742.5 1238.38,-833"/>
<text text-anchor="middle" x="1161.75" y="-815.7" font-family="Helvetica,sans-Serif" font-size="14.00">texture error &lt;= 0.473</text>
<text text-anchor="middle" x="1161.75" y="-799.2" font-family="Helvetica,sans-Serif" font-size="14.00">gini = 0.106</text>
<text text-anchor="middle" x="1161.75" y="-782.7" font-family="Helvetica,sans-Serif" font-size="14.00">samples = 142</text>
<text text-anchor="middle" x="1161.75" y="-766.2" font-family="Helvetica,sans-Serif" font-size="14.00">value = [134, 8]</text>
<text text-anchor="middle" x="1161.75" y="-749.7" font-family="Helvetica,sans-Serif" font-size="14.00">class = malignant</text>
</g>
<!-- 0&#45;&gt;28 -->
<g id="edge28" class="edge">
<title>0&#45;&gt;28</title>
<path fill="none" stroke="black" d="M1134.15,-868.65C1136.9,-860.7 1139.79,-852.32 1142.63,-844.11"/>
<polygon fill="black" stroke="black" points="1145.86,-845.48 1145.82,-834.88 1139.24,-843.19 1145.86,-845.48"/>
<text text-anchor="middle" x="1157.25" y="-850.88" font-family="Helvetica,sans-Serif" font-size="14.00">False</text>
</g>
<!-- 2 -->
<g id="node3" class="node">
<title>2</title>
<polygon fill="none" stroke="black" points="792,-706.5 645.5,-706.5 645.5,-616 792,-616 792,-706.5"/>
<text text-anchor="middle" x="718.75" y="-689.2" font-family="Helvetica,sans-Serif" font-size="14.00">area error &lt;= 91.555</text>
<text text-anchor="middle" x="718.75" y="-672.7" font-family="Helvetica,sans-Serif" font-size="14.00">gini = 0.031</text>
<text text-anchor="middle" x="718.75" y="-656.2" font-family="Helvetica,sans-Serif" font-size="14.00">samples = 252</text>
<text text-anchor="middle" x="718.75" y="-639.7" font-family="Helvetica,sans-Serif" font-size="14.00">value = [4, 248]</text>
<text text-anchor="middle" x="718.75" y="-623.2" font-family="Helvetica,sans-Serif" font-size="14.00">class = benign</text>
</g>
<!-- 1&#45;&gt;2 -->
<g id="edge2" class="edge">
<title>1&#45;&gt;2</title>
<path fill="none" stroke="black" d="M863.16,-742.15C843.41,-731.23 822.25,-719.52 802.37,-708.52"/>
<polygon fill="black" stroke="black" points="804.18,-705.52 793.74,-703.74 800.79,-711.65 804.18,-705.52"/>
</g>
<!-- 17 -->
<g id="node18" class="node">
<title>17</title>
<polygon fill="none" stroke="black" points="1022.25,-706.5 865.25,-706.5 865.25,-616 1022.25,-616 1022.25,-706.5"/>
<text text-anchor="middle" x="943.75" y="-689.2" font-family="Helvetica,sans-Serif" font-size="14.00">worst texture &lt;= 25.62</text>
<text text-anchor="middle" x="943.75" y="-672.7" font-family="Helvetica,sans-Serif" font-size="14.00">gini = 0.451</text>
<text text-anchor="middle" x="943.75" y="-656.2" font-family="Helvetica,sans-Serif" font-size="14.00">samples = 32</text>
<text text-anchor="middle" x="943.75" y="-639.7" font-family="Helvetica,sans-Serif" font-size="14.00">value = [21, 11]</text>
<text text-anchor="middle" x="943.75" y="-623.2" font-family="Helvetica,sans-Serif" font-size="14.00">class = malignant</text>
</g>
<!-- 1&#45;&gt;17 -->
<g id="edge17" class="edge">
<title>1&#45;&gt;17</title>
<path fill="none" stroke="black" d="M943.75,-742.15C943.75,-734.47 943.75,-726.39 943.75,-718.44"/>
<polygon fill="black" stroke="black" points="947.25,-718.47 943.75,-708.47 940.25,-718.47 947.25,-718.47"/>
</g>
<!-- 3 -->
<g id="node4" class="node">
<title>3</title>
<polygon fill="none" stroke="black" points="616.75,-580 486.75,-580 486.75,-489.5 616.75,-489.5 616.75,-580"/>
<text text-anchor="middle" x="551.75" y="-562.7" font-family="Helvetica,sans-Serif" font-size="14.00">area error &lt;= 48.7</text>
<text text-anchor="middle" x="551.75" y="-546.2" font-family="Helvetica,sans-Serif" font-size="14.00">gini = 0.024</text>
<text text-anchor="middle" x="551.75" y="-529.7" font-family="Helvetica,sans-Serif" font-size="14.00">samples = 251</text>
<text text-anchor="middle" x="551.75" y="-513.2" font-family="Helvetica,sans-Serif" font-size="14.00">value = [3, 248]</text>
<text text-anchor="middle" x="551.75" y="-496.7" font-family="Helvetica,sans-Serif" font-size="14.00">class = benign</text>
</g>
<!-- 2&#45;&gt;3 -->
<g id="edge3" class="edge">
<title>2&#45;&gt;3</title>
<path fill="none" stroke="black" d="M658.93,-615.65C646.58,-606.45 633.47,-596.68 620.83,-587.25"/>
<polygon fill="black" stroke="black" points="623.04,-584.53 612.93,-581.36 618.85,-590.14 623.04,-584.53"/>
</g>
<!-- 16 -->
<g id="node17" class="node">
<title>16</title>
<polygon fill="none" stroke="black" points="781.12,-571.75 656.38,-571.75 656.38,-497.75 781.12,-497.75 781.12,-571.75"/>
<text text-anchor="middle" x="718.75" y="-554.45" font-family="Helvetica,sans-Serif" font-size="14.00">gini = 0.0</text>
<text text-anchor="middle" x="718.75" y="-537.95" font-family="Helvetica,sans-Serif" font-size="14.00">samples = 1</text>
<text text-anchor="middle" x="718.75" y="-521.45" font-family="Helvetica,sans-Serif" font-size="14.00">value = [1, 0]</text>
<text text-anchor="middle" x="718.75" y="-504.95" font-family="Helvetica,sans-Serif" font-size="14.00">class = malignant</text>
</g>
<!-- 2&#45;&gt;16 -->
<g id="edge16" class="edge">
<title>2&#45;&gt;16</title>
<path fill="none" stroke="black" d="M718.75,-615.65C718.75,-605.1 718.75,-593.81 718.75,-583.13"/>
<polygon fill="black" stroke="black" points="722.25,-583.37 718.75,-573.37 715.25,-583.37 722.25,-583.37"/>
</g>
<!-- 4 -->
<g id="node5" class="node">
<title>4</title>
<polygon fill="none" stroke="black" points="450,-453.5 261.5,-453.5 261.5,-363 450,-363 450,-453.5"/>
<text text-anchor="middle" x="355.75" y="-436.2" font-family="Helvetica,sans-Serif" font-size="14.00">smoothness error &lt;= 0.003</text>
<text text-anchor="middle" x="355.75" y="-419.7" font-family="Helvetica,sans-Serif" font-size="14.00">gini = 0.016</text>
<text text-anchor="middle" x="355.75" y="-403.2" font-family="Helvetica,sans-Serif" font-size="14.00">samples = 247</text>
<text text-anchor="middle" x="355.75" y="-386.7" font-family="Helvetica,sans-Serif" font-size="14.00">value = [2, 245]</text>
<text text-anchor="middle" x="355.75" y="-370.2" font-family="Helvetica,sans-Serif" font-size="14.00">class = benign</text>
</g>
<!-- 3&#45;&gt;4 -->
<g id="edge4" class="edge">
<title>3&#45;&gt;4</title>
<path fill="none" stroke="black" d="M486.48,-492.29C470.14,-481.91 452.41,-470.65 435.45,-459.88"/>
<polygon fill="black" stroke="black" points="437.71,-457.17 427.39,-454.76 433.96,-463.08 437.71,-457.17"/>
</g>
<!-- 13 -->
<g id="node14" class="node">
<title>13</title>
<polygon fill="none" stroke="black" points="632.88,-453.5 470.62,-453.5 470.62,-363 632.88,-363 632.88,-453.5"/>
<text text-anchor="middle" x="551.75" y="-436.2" font-family="Helvetica,sans-Serif" font-size="14.00">mean radius &lt;= 12.265</text>
<text text-anchor="middle" x="551.75" y="-419.7" font-family="Helvetica,sans-Serif" font-size="14.00">gini = 0.375</text>
<text text-anchor="middle" x="551.75" y="-403.2" font-family="Helvetica,sans-Serif" font-size="14.00">samples = 4</text>
<text text-anchor="middle" x="551.75" y="-386.7" font-family="Helvetica,sans-Serif" font-size="14.00">value = [1, 3]</text>
<text text-anchor="middle" x="551.75" y="-370.2" font-family="Helvetica,sans-Serif" font-size="14.00">class = benign</text>
</g>
<!-- 3&#45;&gt;13 -->
<g id="edge13" class="edge">
<title>3&#45;&gt;13</title>
<path fill="none" stroke="black" d="M551.75,-489.15C551.75,-481.47 551.75,-473.39 551.75,-465.44"/>
<polygon fill="black" stroke="black" points="555.25,-465.47 551.75,-455.47 548.25,-465.47 555.25,-465.47"/>
</g>
<!-- 5 -->
<g id="node6" class="node">
<title>5</title>
<polygon fill="none" stroke="black" points="259.38,-327 94.12,-327 94.12,-236.5 259.38,-236.5 259.38,-327"/>
<text text-anchor="middle" x="176.75" y="-309.7" font-family="Helvetica,sans-Serif" font-size="14.00">worst texture &lt;= 26.355</text>
<text text-anchor="middle" x="176.75" y="-293.2" font-family="Helvetica,sans-Serif" font-size="14.00">gini = 0.375</text>
<text text-anchor="middle" x="176.75" y="-276.7" font-family="Helvetica,sans-Serif" font-size="14.00">samples = 4</text>
<text text-anchor="middle" x="176.75" y="-260.2" font-family="Helvetica,sans-Serif" font-size="14.00">value = [1, 3]</text>
<text text-anchor="middle" x="176.75" y="-243.7" font-family="Helvetica,sans-Serif" font-size="14.00">class = benign</text>
</g>
<!-- 4&#45;&gt;5 -->
<g id="edge5" class="edge">
<title>4&#45;&gt;5</title>
<path fill="none" stroke="black" d="M291.63,-362.65C278.27,-353.36 264.07,-343.49 250.39,-333.97"/>
<polygon fill="black" stroke="black" points="252.47,-331.15 242.26,-328.32 248.48,-336.9 252.47,-331.15"/>
</g>
<!-- 8 -->
<g id="node9" class="node">
<title>8</title>
<polygon fill="none" stroke="black" points="434.25,-327 277.25,-327 277.25,-236.5 434.25,-236.5 434.25,-327"/>
<text text-anchor="middle" x="355.75" y="-309.7" font-family="Helvetica,sans-Serif" font-size="14.00">worst texture &lt;= 33.35</text>
<text text-anchor="middle" x="355.75" y="-293.2" font-family="Helvetica,sans-Serif" font-size="14.00">gini = 0.008</text>
<text text-anchor="middle" x="355.75" y="-276.7" font-family="Helvetica,sans-Serif" font-size="14.00">samples = 243</text>
<text text-anchor="middle" x="355.75" y="-260.2" font-family="Helvetica,sans-Serif" font-size="14.00">value = [1, 242]</text>
<text text-anchor="middle" x="355.75" y="-243.7" font-family="Helvetica,sans-Serif" font-size="14.00">class = benign</text>
</g>
<!-- 4&#45;&gt;8 -->
<g id="edge8" class="edge">
<title>4&#45;&gt;8</title>
<path fill="none" stroke="black" d="M355.75,-362.65C355.75,-354.97 355.75,-346.89 355.75,-338.94"/>
<polygon fill="black" stroke="black" points="359.25,-338.97 355.75,-328.97 352.25,-338.97 359.25,-338.97"/>
</g>
<!-- 6 -->
<g id="node7" class="node">
<title>6</title>
<polygon fill="none" stroke="black" points="107.5,-192.25 0,-192.25 0,-118.25 107.5,-118.25 107.5,-192.25"/>
<text text-anchor="middle" x="53.75" y="-174.95" font-family="Helvetica,sans-Serif" font-size="14.00">gini = 0.0</text>
<text text-anchor="middle" x="53.75" y="-158.45" font-family="Helvetica,sans-Serif" font-size="14.00">samples = 3</text>
<text text-anchor="middle" x="53.75" y="-141.95" font-family="Helvetica,sans-Serif" font-size="14.00">value = [0, 3]</text>
<text text-anchor="middle" x="53.75" y="-125.45" font-family="Helvetica,sans-Serif" font-size="14.00">class = benign</text>
</g>
<!-- 5&#45;&gt;6 -->
<g id="edge6" class="edge">
<title>5&#45;&gt;6</title>
<path fill="none" stroke="black" d="M132.69,-236.15C121.15,-224.48 108.72,-211.89 97.22,-200.25"/>
<polygon fill="black" stroke="black" points="100,-198.09 90.48,-193.43 95.02,-203.01 100,-198.09"/>
</g>
<!-- 7 -->
<g id="node8" class="node">
<title>7</title>
<polygon fill="none" stroke="black" points="250.12,-192.25 125.38,-192.25 125.38,-118.25 250.12,-118.25 250.12,-192.25"/>
<text text-anchor="middle" x="187.75" y="-174.95" font-family="Helvetica,sans-Serif" font-size="14.00">gini = 0.0</text>
<text text-anchor="middle" x="187.75" y="-158.45" font-family="Helvetica,sans-Serif" font-size="14.00">samples = 1</text>
<text text-anchor="middle" x="187.75" y="-141.95" font-family="Helvetica,sans-Serif" font-size="14.00">value = [1, 0]</text>
<text text-anchor="middle" x="187.75" y="-125.45" font-family="Helvetica,sans-Serif" font-size="14.00">class = malignant</text>
</g>
<!-- 5&#45;&gt;7 -->
<g id="edge7" class="edge">
<title>5&#45;&gt;7</title>
<path fill="none" stroke="black" d="M180.69,-236.15C181.62,-225.6 182.62,-214.31 183.56,-203.63"/>
<polygon fill="black" stroke="black" points="187.03,-204.13 184.43,-193.86 180.06,-203.52 187.03,-204.13"/>
</g>
<!-- 9 -->
<g id="node10" class="node">
<title>9</title>
<polygon fill="none" stroke="black" points="402.12,-192.25 289.38,-192.25 289.38,-118.25 402.12,-118.25 402.12,-192.25"/>
<text text-anchor="middle" x="345.75" y="-174.95" font-family="Helvetica,sans-Serif" font-size="14.00">gini = 0.0</text>
<text text-anchor="middle" x="345.75" y="-158.45" font-family="Helvetica,sans-Serif" font-size="14.00">samples = 225</text>
<text text-anchor="middle" x="345.75" y="-141.95" font-family="Helvetica,sans-Serif" font-size="14.00">value = [0, 225]</text>
<text text-anchor="middle" x="345.75" y="-125.45" font-family="Helvetica,sans-Serif" font-size="14.00">class = benign</text>
</g>
<!-- 8&#45;&gt;9 -->
<g id="edge9" class="edge">
<title>8&#45;&gt;9</title>
<path fill="none" stroke="black" d="M352.17,-236.15C351.32,-225.6 350.41,-214.31 349.56,-203.63"/>
<polygon fill="black" stroke="black" points="353.06,-203.55 348.77,-193.86 346.08,-204.11 353.06,-203.55"/>
</g>
<!-- 10 -->
<g id="node11" class="node">
<title>10</title>
<polygon fill="none" stroke="black" points="569.12,-200.5 420.38,-200.5 420.38,-110 569.12,-110 569.12,-200.5"/>
<text text-anchor="middle" x="494.75" y="-183.2" font-family="Helvetica,sans-Serif" font-size="14.00">worst texture &lt;= 33.8</text>
<text text-anchor="middle" x="494.75" y="-166.7" font-family="Helvetica,sans-Serif" font-size="14.00">gini = 0.105</text>
<text text-anchor="middle" x="494.75" y="-150.2" font-family="Helvetica,sans-Serif" font-size="14.00">samples = 18</text>
<text text-anchor="middle" x="494.75" y="-133.7" font-family="Helvetica,sans-Serif" font-size="14.00">value = [1, 17]</text>
<text text-anchor="middle" x="494.75" y="-117.2" font-family="Helvetica,sans-Serif" font-size="14.00">class = benign</text>
</g>
<!-- 8&#45;&gt;10 -->
<g id="edge10" class="edge">
<title>8&#45;&gt;10</title>
<path fill="none" stroke="black" d="M405.54,-236.15C415.52,-227.21 426.09,-217.75 436.33,-208.57"/>
<polygon fill="black" stroke="black" points="438.6,-211.24 443.71,-201.96 433.93,-206.03 438.6,-211.24"/>
</g>
<!-- 11 -->
<g id="node12" class="node">
<title>11</title>
<polygon fill="none" stroke="black" points="490.12,-74 365.38,-74 365.38,0 490.12,0 490.12,-74"/>
<text text-anchor="middle" x="427.75" y="-56.7" font-family="Helvetica,sans-Serif" font-size="14.00">gini = 0.0</text>
<text text-anchor="middle" x="427.75" y="-40.2" font-family="Helvetica,sans-Serif" font-size="14.00">samples = 1</text>
<text text-anchor="middle" x="427.75" y="-23.7" font-family="Helvetica,sans-Serif" font-size="14.00">value = [1, 0]</text>
<text text-anchor="middle" x="427.75" y="-7.2" font-family="Helvetica,sans-Serif" font-size="14.00">class = malignant</text>
</g>
<!-- 10&#45;&gt;11 -->
<g id="edge11" class="edge">
<title>10&#45;&gt;11</title>
<path fill="none" stroke="black" d="M469.04,-109.64C464.26,-101.35 459.26,-92.68 454.46,-84.34"/>
<polygon fill="black" stroke="black" points="457.51,-82.62 449.48,-75.7 451.44,-86.12 457.51,-82.62"/>
</g>
<!-- 12 -->
<g id="node13" class="node">
<title>12</title>
<polygon fill="none" stroke="black" points="615.5,-74 508,-74 508,0 615.5,0 615.5,-74"/>
<text text-anchor="middle" x="561.75" y="-56.7" font-family="Helvetica,sans-Serif" font-size="14.00">gini = 0.0</text>
<text text-anchor="middle" x="561.75" y="-40.2" font-family="Helvetica,sans-Serif" font-size="14.00">samples = 17</text>
<text text-anchor="middle" x="561.75" y="-23.7" font-family="Helvetica,sans-Serif" font-size="14.00">value = [0, 17]</text>
<text text-anchor="middle" x="561.75" y="-7.2" font-family="Helvetica,sans-Serif" font-size="14.00">class = benign</text>
</g>
<!-- 10&#45;&gt;12 -->
<g id="edge12" class="edge">
<title>10&#45;&gt;12</title>
<path fill="none" stroke="black" d="M520.46,-109.64C525.24,-101.35 530.24,-92.68 535.04,-84.34"/>
<polygon fill="black" stroke="black" points="538.06,-86.12 540.02,-75.7 531.99,-82.62 538.06,-86.12"/>
</g>
<!-- 14 -->
<g id="node15" class="node">
<title>14</title>
<polygon fill="none" stroke="black" points="577.12,-318.75 452.38,-318.75 452.38,-244.75 577.12,-244.75 577.12,-318.75"/>
<text text-anchor="middle" x="514.75" y="-301.45" font-family="Helvetica,sans-Serif" font-size="14.00">gini = 0.0</text>
<text text-anchor="middle" x="514.75" y="-284.95" font-family="Helvetica,sans-Serif" font-size="14.00">samples = 1</text>
<text text-anchor="middle" x="514.75" y="-268.45" font-family="Helvetica,sans-Serif" font-size="14.00">value = [1, 0]</text>
<text text-anchor="middle" x="514.75" y="-251.95" font-family="Helvetica,sans-Serif" font-size="14.00">class = malignant</text>
</g>
<!-- 13&#45;&gt;14 -->
<g id="edge14" class="edge">
<title>13&#45;&gt;14</title>
<path fill="none" stroke="black" d="M538.5,-362.65C535.33,-351.99 531.93,-340.56 528.73,-329.79"/>
<polygon fill="black" stroke="black" points="532.12,-328.9 525.91,-320.31 525.41,-330.89 532.12,-328.9"/>
</g>
<!-- 15 -->
<g id="node16" class="node">
<title>15</title>
<polygon fill="none" stroke="black" points="702.5,-318.75 595,-318.75 595,-244.75 702.5,-244.75 702.5,-318.75"/>
<text text-anchor="middle" x="648.75" y="-301.45" font-family="Helvetica,sans-Serif" font-size="14.00">gini = 0.0</text>
<text text-anchor="middle" x="648.75" y="-284.95" font-family="Helvetica,sans-Serif" font-size="14.00">samples = 3</text>
<text text-anchor="middle" x="648.75" y="-268.45" font-family="Helvetica,sans-Serif" font-size="14.00">value = [0, 3]</text>
<text text-anchor="middle" x="648.75" y="-251.95" font-family="Helvetica,sans-Serif" font-size="14.00">class = benign</text>
</g>
<!-- 13&#45;&gt;15 -->
<g id="edge15" class="edge">
<title>13&#45;&gt;15</title>
<path fill="none" stroke="black" d="M586.5,-362.65C595.33,-351.31 604.83,-339.12 613.68,-327.76"/>
<polygon fill="black" stroke="black" points="616.3,-330.09 619.69,-320.05 610.78,-325.79 616.3,-330.09"/>
</g>
<!-- 18 -->
<g id="node19" class="node">
<title>18</title>
<polygon fill="none" stroke="black" points="1007.12,-580 804.38,-580 804.38,-489.5 1007.12,-489.5 1007.12,-580"/>
<text text-anchor="middle" x="905.75" y="-562.7" font-family="Helvetica,sans-Serif" font-size="14.00">mean concave points &lt;= 0.08</text>
<text text-anchor="middle" x="905.75" y="-546.2" font-family="Helvetica,sans-Serif" font-size="14.00">gini = 0.375</text>
<text text-anchor="middle" x="905.75" y="-529.7" font-family="Helvetica,sans-Serif" font-size="14.00">samples = 12</text>
<text text-anchor="middle" x="905.75" y="-513.2" font-family="Helvetica,sans-Serif" font-size="14.00">value = [3, 9]</text>
<text text-anchor="middle" x="905.75" y="-496.7" font-family="Helvetica,sans-Serif" font-size="14.00">class = benign</text>
</g>
<!-- 17&#45;&gt;18 -->
<g id="edge18" class="edge">
<title>17&#45;&gt;18</title>
<path fill="none" stroke="black" d="M930.14,-615.65C927.74,-607.79 925.21,-599.51 922.73,-591.39"/>
<polygon fill="black" stroke="black" points="926.1,-590.44 919.84,-581.9 919.41,-592.49 926.1,-590.44"/>
</g>
<!-- 23 -->
<g id="node24" class="node">
<title>23</title>
<polygon fill="none" stroke="black" points="1200.62,-580 1024.88,-580 1024.88,-489.5 1200.62,-489.5 1200.62,-580"/>
<text text-anchor="middle" x="1112.75" y="-562.7" font-family="Helvetica,sans-Serif" font-size="14.00">worst symmetry &lt;= 0.268</text>
<text text-anchor="middle" x="1112.75" y="-546.2" font-family="Helvetica,sans-Serif" font-size="14.00">gini = 0.18</text>
<text text-anchor="middle" x="1112.75" y="-529.7" font-family="Helvetica,sans-Serif" font-size="14.00">samples = 20</text>
<text text-anchor="middle" x="1112.75" y="-513.2" font-family="Helvetica,sans-Serif" font-size="14.00">value = [18, 2]</text>
<text text-anchor="middle" x="1112.75" y="-496.7" font-family="Helvetica,sans-Serif" font-size="14.00">class = malignant</text>
</g>
<!-- 17&#45;&gt;23 -->
<g id="edge23" class="edge">
<title>17&#45;&gt;23</title>
<path fill="none" stroke="black" d="M1004.29,-615.65C1016.78,-606.45 1030.05,-596.68 1042.85,-587.25"/>
<polygon fill="black" stroke="black" points="1044.88,-590.1 1050.85,-581.35 1040.72,-584.46 1044.88,-590.1"/>
</g>
<!-- 19 -->
<g id="node20" class="node">
<title>19</title>
<polygon fill="none" stroke="black" points="845.75,-453.5 703.75,-453.5 703.75,-363 845.75,-363 845.75,-453.5"/>
<text text-anchor="middle" x="774.75" y="-436.2" font-family="Helvetica,sans-Serif" font-size="14.00">worst area &lt;= 817.1</text>
<text text-anchor="middle" x="774.75" y="-419.7" font-family="Helvetica,sans-Serif" font-size="14.00">gini = 0.18</text>
<text text-anchor="middle" x="774.75" y="-403.2" font-family="Helvetica,sans-Serif" font-size="14.00">samples = 10</text>
<text text-anchor="middle" x="774.75" y="-386.7" font-family="Helvetica,sans-Serif" font-size="14.00">value = [1, 9]</text>
<text text-anchor="middle" x="774.75" y="-370.2" font-family="Helvetica,sans-Serif" font-size="14.00">class = benign</text>
</g>
<!-- 18&#45;&gt;19 -->
<g id="edge19" class="edge">
<title>18&#45;&gt;19</title>
<path fill="none" stroke="black" d="M858.83,-489.15C849.51,-480.3 839.66,-470.93 830.09,-461.85"/>
<polygon fill="black" stroke="black" points="832.54,-459.35 822.88,-455 827.72,-464.42 832.54,-459.35"/>
</g>
<!-- 22 -->
<g id="node23" class="node">
<title>22</title>
<polygon fill="none" stroke="black" points="988.12,-445.25 863.38,-445.25 863.38,-371.25 988.12,-371.25 988.12,-445.25"/>
<text text-anchor="middle" x="925.75" y="-427.95" font-family="Helvetica,sans-Serif" font-size="14.00">gini = 0.0</text>
<text text-anchor="middle" x="925.75" y="-411.45" font-family="Helvetica,sans-Serif" font-size="14.00">samples = 2</text>
<text text-anchor="middle" x="925.75" y="-394.95" font-family="Helvetica,sans-Serif" font-size="14.00">value = [2, 0]</text>
<text text-anchor="middle" x="925.75" y="-378.45" font-family="Helvetica,sans-Serif" font-size="14.00">class = malignant</text>
</g>
<!-- 18&#45;&gt;22 -->
<g id="edge22" class="edge">
<title>18&#45;&gt;22</title>
<path fill="none" stroke="black" d="M912.91,-489.15C914.61,-478.6 916.42,-467.31 918.14,-456.63"/>
<polygon fill="black" stroke="black" points="921.58,-457.28 919.71,-446.85 914.67,-456.17 921.58,-457.28"/>
</g>
<!-- 20 -->
<g id="node21" class="node">
<title>20</title>
<polygon fill="none" stroke="black" points="828.5,-318.75 721,-318.75 721,-244.75 828.5,-244.75 828.5,-318.75"/>
<text text-anchor="middle" x="774.75" y="-301.45" font-family="Helvetica,sans-Serif" font-size="14.00">gini = 0.0</text>
<text text-anchor="middle" x="774.75" y="-284.95" font-family="Helvetica,sans-Serif" font-size="14.00">samples = 9</text>
<text text-anchor="middle" x="774.75" y="-268.45" font-family="Helvetica,sans-Serif" font-size="14.00">value = [0, 9]</text>
<text text-anchor="middle" x="774.75" y="-251.95" font-family="Helvetica,sans-Serif" font-size="14.00">class = benign</text>
</g>
<!-- 19&#45;&gt;20 -->
<g id="edge20" class="edge">
<title>19&#45;&gt;20</title>
<path fill="none" stroke="black" d="M774.75,-362.65C774.75,-352.1 774.75,-340.81 774.75,-330.13"/>
<polygon fill="black" stroke="black" points="778.25,-330.37 774.75,-320.37 771.25,-330.37 778.25,-330.37"/>
</g>
<!-- 21 -->
<g id="node22" class="node">
<title>21</title>
<polygon fill="none" stroke="black" points="971.12,-318.75 846.38,-318.75 846.38,-244.75 971.12,-244.75 971.12,-318.75"/>
<text text-anchor="middle" x="908.75" y="-301.45" font-family="Helvetica,sans-Serif" font-size="14.00">gini = 0.0</text>
<text text-anchor="middle" x="908.75" y="-284.95" font-family="Helvetica,sans-Serif" font-size="14.00">samples = 1</text>
<text text-anchor="middle" x="908.75" y="-268.45" font-family="Helvetica,sans-Serif" font-size="14.00">value = [1, 0]</text>
<text text-anchor="middle" x="908.75" y="-251.95" font-family="Helvetica,sans-Serif" font-size="14.00">class = malignant</text>
</g>
<!-- 19&#45;&gt;21 -->
<g id="edge21" class="edge">
<title>19&#45;&gt;21</title>
<path fill="none" stroke="black" d="M822.75,-362.65C835.44,-350.86 849.12,-338.15 861.76,-326.41"/>
<polygon fill="black" stroke="black" points="863.84,-329.26 868.78,-319.89 859.07,-324.13 863.84,-329.26"/>
</g>
<!-- 24 -->
<g id="node25" class="node">
<title>24</title>
<polygon fill="none" stroke="black" points="1180.88,-453.5 1006.62,-453.5 1006.62,-363 1180.88,-363 1180.88,-453.5"/>
<text text-anchor="middle" x="1093.75" y="-436.2" font-family="Helvetica,sans-Serif" font-size="14.00">mean concavity &lt;= 0.103</text>
<text text-anchor="middle" x="1093.75" y="-419.7" font-family="Helvetica,sans-Serif" font-size="14.00">gini = 0.444</text>
<text text-anchor="middle" x="1093.75" y="-403.2" font-family="Helvetica,sans-Serif" font-size="14.00">samples = 3</text>
<text text-anchor="middle" x="1093.75" y="-386.7" font-family="Helvetica,sans-Serif" font-size="14.00">value = [1, 2]</text>
<text text-anchor="middle" x="1093.75" y="-370.2" font-family="Helvetica,sans-Serif" font-size="14.00">class = benign</text>
</g>
<!-- 23&#45;&gt;24 -->
<g id="edge24" class="edge">
<title>23&#45;&gt;24</title>
<path fill="none" stroke="black" d="M1105.94,-489.15C1104.76,-481.38 1103.51,-473.2 1102.28,-465.16"/>
<polygon fill="black" stroke="black" points="1105.77,-464.81 1100.8,-455.45 1098.85,-465.86 1105.77,-464.81"/>
</g>
<!-- 27 -->
<g id="node28" class="node">
<title>27</title>
<polygon fill="none" stroke="black" points="1324.12,-445.25 1199.38,-445.25 1199.38,-371.25 1324.12,-371.25 1324.12,-445.25"/>
<text text-anchor="middle" x="1261.75" y="-427.95" font-family="Helvetica,sans-Serif" font-size="14.00">gini = 0.0</text>
<text text-anchor="middle" x="1261.75" y="-411.45" font-family="Helvetica,sans-Serif" font-size="14.00">samples = 17</text>
<text text-anchor="middle" x="1261.75" y="-394.95" font-family="Helvetica,sans-Serif" font-size="14.00">value = [17, 0]</text>
<text text-anchor="middle" x="1261.75" y="-378.45" font-family="Helvetica,sans-Serif" font-size="14.00">class = malignant</text>
</g>
<!-- 23&#45;&gt;27 -->
<g id="edge27" class="edge">
<title>23&#45;&gt;27</title>
<path fill="none" stroke="black" d="M1166.12,-489.15C1180.37,-477.25 1195.74,-464.41 1209.9,-452.58"/>
<polygon fill="black" stroke="black" points="1211.95,-455.42 1217.38,-446.33 1207.46,-450.05 1211.95,-455.42"/>
</g>
<!-- 25 -->
<g id="node26" class="node">
<title>25</title>
<polygon fill="none" stroke="black" points="1122.5,-318.75 1015,-318.75 1015,-244.75 1122.5,-244.75 1122.5,-318.75"/>
<text text-anchor="middle" x="1068.75" y="-301.45" font-family="Helvetica,sans-Serif" font-size="14.00">gini = 0.0</text>
<text text-anchor="middle" x="1068.75" y="-284.95" font-family="Helvetica,sans-Serif" font-size="14.00">samples = 2</text>
<text text-anchor="middle" x="1068.75" y="-268.45" font-family="Helvetica,sans-Serif" font-size="14.00">value = [0, 2]</text>
<text text-anchor="middle" x="1068.75" y="-251.95" font-family="Helvetica,sans-Serif" font-size="14.00">class = benign</text>
</g>
<!-- 24&#45;&gt;25 -->
<g id="edge25" class="edge">
<title>24&#45;&gt;25</title>
<path fill="none" stroke="black" d="M1084.8,-362.65C1082.68,-352.1 1080.41,-340.81 1078.26,-330.13"/>
<polygon fill="black" stroke="black" points="1081.7,-329.46 1076.3,-320.34 1074.84,-330.83 1081.7,-329.46"/>
</g>
<!-- 26 -->
<g id="node27" class="node">
<title>26</title>
<polygon fill="none" stroke="black" points="1265.12,-318.75 1140.38,-318.75 1140.38,-244.75 1265.12,-244.75 1265.12,-318.75"/>
<text text-anchor="middle" x="1202.75" y="-301.45" font-family="Helvetica,sans-Serif" font-size="14.00">gini = 0.0</text>
<text text-anchor="middle" x="1202.75" y="-284.95" font-family="Helvetica,sans-Serif" font-size="14.00">samples = 1</text>
<text text-anchor="middle" x="1202.75" y="-268.45" font-family="Helvetica,sans-Serif" font-size="14.00">value = [1, 0]</text>
<text text-anchor="middle" x="1202.75" y="-251.95" font-family="Helvetica,sans-Serif" font-size="14.00">class = malignant</text>
</g>
<!-- 24&#45;&gt;26 -->
<g id="edge26" class="edge">
<title>24&#45;&gt;26</title>
<path fill="none" stroke="black" d="M1132.79,-362.65C1142.82,-351.2 1153.61,-338.88 1163.64,-327.42"/>
<polygon fill="black" stroke="black" points="1166.19,-329.82 1170.14,-319.99 1160.92,-325.21 1166.19,-329.82"/>
</g>
<!-- 29 -->
<g id="node30" class="node">
<title>29</title>
<polygon fill="none" stroke="black" points="1215.5,-698.25 1108,-698.25 1108,-624.25 1215.5,-624.25 1215.5,-698.25"/>
<text text-anchor="middle" x="1161.75" y="-680.95" font-family="Helvetica,sans-Serif" font-size="14.00">gini = 0.0</text>
<text text-anchor="middle" x="1161.75" y="-664.45" font-family="Helvetica,sans-Serif" font-size="14.00">samples = 5</text>
<text text-anchor="middle" x="1161.75" y="-647.95" font-family="Helvetica,sans-Serif" font-size="14.00">value = [0, 5]</text>
<text text-anchor="middle" x="1161.75" y="-631.45" font-family="Helvetica,sans-Serif" font-size="14.00">class = benign</text>
</g>
<!-- 28&#45;&gt;29 -->
<g id="edge29" class="edge">
<title>28&#45;&gt;29</title>
<path fill="none" stroke="black" d="M1161.75,-742.15C1161.75,-731.6 1161.75,-720.31 1161.75,-709.63"/>
<polygon fill="black" stroke="black" points="1165.25,-709.87 1161.75,-699.87 1158.25,-709.87 1165.25,-709.87"/>
</g>
<!-- 30 -->
<g id="node31" class="node">
<title>30</title>
<polygon fill="none" stroke="black" points="1482.12,-706.5 1309.38,-706.5 1309.38,-616 1482.12,-616 1482.12,-706.5"/>
<text text-anchor="middle" x="1395.75" y="-689.2" font-family="Helvetica,sans-Serif" font-size="14.00">worst concavity &lt;= 0.191</text>
<text text-anchor="middle" x="1395.75" y="-672.7" font-family="Helvetica,sans-Serif" font-size="14.00">gini = 0.043</text>
<text text-anchor="middle" x="1395.75" y="-656.2" font-family="Helvetica,sans-Serif" font-size="14.00">samples = 137</text>
<text text-anchor="middle" x="1395.75" y="-639.7" font-family="Helvetica,sans-Serif" font-size="14.00">value = [134, 3]</text>
<text text-anchor="middle" x="1395.75" y="-623.2" font-family="Helvetica,sans-Serif" font-size="14.00">class = malignant</text>
</g>
<!-- 28&#45;&gt;30 -->
<g id="edge30" class="edge">
<title>28&#45;&gt;30</title>
<path fill="none" stroke="black" d="M1238.69,-745.81C1258.93,-735.04 1280.99,-723.31 1302.01,-712.13"/>
<polygon fill="black" stroke="black" points="1303.38,-715.36 1310.56,-707.57 1300.09,-709.18 1303.38,-715.36"/>
</g>
<!-- 31 -->
<g id="node32" class="node">
<title>31</title>
<polygon fill="none" stroke="black" points="1478.38,-580 1313.12,-580 1313.12,-489.5 1478.38,-489.5 1478.38,-580"/>
<text text-anchor="middle" x="1395.75" y="-562.7" font-family="Helvetica,sans-Serif" font-size="14.00">worst texture &lt;= 30.975</text>
<text text-anchor="middle" x="1395.75" y="-546.2" font-family="Helvetica,sans-Serif" font-size="14.00">gini = 0.48</text>
<text text-anchor="middle" x="1395.75" y="-529.7" font-family="Helvetica,sans-Serif" font-size="14.00">samples = 5</text>
<text text-anchor="middle" x="1395.75" y="-513.2" font-family="Helvetica,sans-Serif" font-size="14.00">value = [2, 3]</text>
<text text-anchor="middle" x="1395.75" y="-496.7" font-family="Helvetica,sans-Serif" font-size="14.00">class = benign</text>
</g>
<!-- 30&#45;&gt;31 -->
<g id="edge31" class="edge">
<title>30&#45;&gt;31</title>
<path fill="none" stroke="black" d="M1395.75,-615.65C1395.75,-607.97 1395.75,-599.89 1395.75,-591.94"/>
<polygon fill="black" stroke="black" points="1399.25,-591.97 1395.75,-581.97 1392.25,-591.97 1399.25,-591.97"/>
</g>
<!-- 34 -->
<g id="node35" class="node">
<title>34</title>
<polygon fill="none" stroke="black" points="1621.12,-571.75 1496.38,-571.75 1496.38,-497.75 1621.12,-497.75 1621.12,-571.75"/>
<text text-anchor="middle" x="1558.75" y="-554.45" font-family="Helvetica,sans-Serif" font-size="14.00">gini = 0.0</text>
<text text-anchor="middle" x="1558.75" y="-537.95" font-family="Helvetica,sans-Serif" font-size="14.00">samples = 132</text>
<text text-anchor="middle" x="1558.75" y="-521.45" font-family="Helvetica,sans-Serif" font-size="14.00">value = [132, 0]</text>
<text text-anchor="middle" x="1558.75" y="-504.95" font-family="Helvetica,sans-Serif" font-size="14.00">class = malignant</text>
</g>
<!-- 30&#45;&gt;34 -->
<g id="edge34" class="edge">
<title>30&#45;&gt;34</title>
<path fill="none" stroke="black" d="M1454.14,-615.65C1469.79,-603.7 1486.69,-590.79 1502.24,-578.92"/>
<polygon fill="black" stroke="black" points="1504.19,-581.83 1510.01,-572.97 1499.94,-576.26 1504.19,-581.83"/>
</g>
<!-- 32 -->
<g id="node33" class="node">
<title>32</title>
<polygon fill="none" stroke="black" points="1449.5,-445.25 1342,-445.25 1342,-371.25 1449.5,-371.25 1449.5,-445.25"/>
<text text-anchor="middle" x="1395.75" y="-427.95" font-family="Helvetica,sans-Serif" font-size="14.00">gini = 0.0</text>
<text text-anchor="middle" x="1395.75" y="-411.45" font-family="Helvetica,sans-Serif" font-size="14.00">samples = 3</text>
<text text-anchor="middle" x="1395.75" y="-394.95" font-family="Helvetica,sans-Serif" font-size="14.00">value = [0, 3]</text>
<text text-anchor="middle" x="1395.75" y="-378.45" font-family="Helvetica,sans-Serif" font-size="14.00">class = benign</text>
</g>
<!-- 31&#45;&gt;32 -->
<g id="edge32" class="edge">
<title>31&#45;&gt;32</title>
<path fill="none" stroke="black" d="M1395.75,-489.15C1395.75,-478.6 1395.75,-467.31 1395.75,-456.63"/>
<polygon fill="black" stroke="black" points="1399.25,-456.87 1395.75,-446.87 1392.25,-456.87 1399.25,-456.87"/>
</g>
<!-- 33 -->
<g id="node34" class="node">
<title>33</title>
<polygon fill="none" stroke="black" points="1592.12,-445.25 1467.38,-445.25 1467.38,-371.25 1592.12,-371.25 1592.12,-445.25"/>
<text text-anchor="middle" x="1529.75" y="-427.95" font-family="Helvetica,sans-Serif" font-size="14.00">gini = 0.0</text>
<text text-anchor="middle" x="1529.75" y="-411.45" font-family="Helvetica,sans-Serif" font-size="14.00">samples = 2</text>
<text text-anchor="middle" x="1529.75" y="-394.95" font-family="Helvetica,sans-Serif" font-size="14.00">value = [2, 0]</text>
<text text-anchor="middle" x="1529.75" y="-378.45" font-family="Helvetica,sans-Serif" font-size="14.00">class = malignant</text>
</g>
<!-- 31&#45;&gt;33 -->
<g id="edge33" class="edge">
<title>31&#45;&gt;33</title>
<path fill="none" stroke="black" d="M1443.75,-489.15C1456.44,-477.36 1470.12,-464.65 1482.76,-452.91"/>
<polygon fill="black" stroke="black" points="1484.84,-455.76 1489.78,-446.39 1480.07,-450.63 1484.84,-455.76"/>
</g>
</g>
</svg>
